<?xml version="1.0" standalone="no"?>
<!DOCTYPE svg PUBLIC "-//W3C//DTD SVG 20010904//EN"
 "http://www.w3.org/TR/2001/REC-SVG-20010904/DTD/svg10.dtd">
<svg version="1.0" xmlns="http://www.w3.org/2000/svg"
 width="512.000000pt" height="512.000000pt" viewBox="0 0 512.000000 512.000000"
 preserveAspectRatio="xMidYMid meet">
<metadata>
Created by potrace 1.11, written by Peter Selinger 2001-2013
</metadata>
<g transform="translate(0.000000,512.000000) scale(0.100000,-0.100000)"
fill="#000000" stroke="none">
<path d="M0 2560 l0 -2560 2560 0 2560 0 0 2560 0 2560 -2560 0 -2560 0 0
-2560z m3763 974 c119 -27 212 -82 262 -154 15 -22 31 -37 36 -34 5 3 9 43 9
90 l0 84 180 0 180 0 0 -335 0 -335 -180 0 -180 0 0 78 c0 158 -37 250 -128
319 -65 49 -138 68 -262 67 -84 0 -116 -5 -163 -23 -75 -29 -134 -75 -174
-135 -73 -107 -87 -233 -80 -716 5 -379 9 -412 58 -517 83 -175 286 -262 516
-221 181 32 299 120 393 292 l36 65 84 -49 c63 -37 84 -54 82 -67 -8 -39 -86
-173 -137 -235 -74 -90 -152 -151 -259 -203 -143 -70 -239 -88 -426 -82 -172
5 -241 19 -357 72 -318 146 -504 439 -544 858 -23 249 18 494 115 692 132 268
340 433 616 490 91 19 237 18 323 -1z m-1393 -294 l0 -280 -180 0 -180 0 0
165 0 165 -305 0 -305 0 0 -325 0 -325 188 2 187 3 3 83 3 82 114 0 115 0 0
-280 0 -280 -115 0 -115 0 0 85 0 85 -190 0 -190 0 0 -375 0 -375 315 0 315 0
0 200 0 200 180 0 180 0 0 -310 0 -310 -855 0 -855 0 0 100 0 100 105 0 105 0
-2 833 -3 832 -102 3 -103 3 0 99 0 100 845 0 845 0 0 -280z"/>
</g>
</svg>
