<svg width="1274" height="5298" viewBox="0 0 1274 5298" fill="none" xmlns="http://www.w3.org/2000/svg">
<path d="M122 5297C295.448 4984.79 575.073 4752.44 898.667 4606.56C981.738 4569.11 1082.55 4530.43 1098 4427.67C1111.61 4337.12 1037.66 4247.73 987.778 4179.67C970.329 4155.86 951.769 4120.43 917.556 4134.11C894.398 4143.37 877.838 4163.33 862.222 4181.89C825.298 4225.76 790.648 4271.98 757.556 4318.78C726.579 4362.59 693.575 4408.55 671.778 4457.89C665.999 4470.97 651.469 4507.02 661.556 4524.56C672.258 4543.16 707.653 4542.46 722.444 4541.44C777.37 4537.69 837.496 4519.15 888.222 4497.89C906.072 4490.41 908.679 4487.19 914 4473" stroke="#FFC2D0" stroke-width="2" stroke-linecap="round" stroke-linejoin="round"/>
<path d="M1054.41 946.527C1017.65 958.032 975.799 956.098 937.86 958.079C875.846 961.316 814.093 965.832 752.812 976.381C694.326 986.449 632.924 999.686 581.151 1030.15C551.144 1047.8 522.874 1072.9 507.425 1104.83C481.742 1157.93 496.287 1221.97 514.704 1274.66C543.467 1356.96 593.533 1429.61 636.514 1504.69C690.193 1598.45 737.11 1695.7 766.194 1800.16C780.951 1853.16 790.852 1908.8 787.264 1963.99C784.765 2002.42 775.948 2055.2 740.912 2078.73C707.179 2101.39 656.695 2092.01 619.995 2084.55C564.894 2073.35 511.957 2053.59 457.99 2038.21C420.191 2027.44 378.483 2014.8 338.541 2017.75C292.794 2021.12 272.259 2050.75 265.329 2093.35C255.126 2156.08 262.37 2222.25 264.798 2285.25C266.158 2320.5 267.81 2358.76 266.645 2394.14C263.139 2500.57 265.222 2379.46 258.555 2473.25" stroke="#FFC2D0" stroke-width="2" stroke-linecap="round" stroke-linejoin="round"/>
<path d="M74 3925C158.806 3689.49 275.154 3471.08 438 3279.44C606.655 3080.97 815.901 2910.08 1066 2828.11C1123.72 2809.19 1187.28 2791.42 1248.44 2788.11C1304.36 2785.09 1252.32 2820.52 1235.78 2832.56C1071.11 2952.32 904.919 3066.51 749.111 3198.33C678.444 3258.12 609.301 3319.81 543.556 3385C525.026 3403.37 439.094 3471.45 449.556 3509.44C455.844 3532.28 494.895 3538.71 512.667 3543.22C568.793 3557.48 626.44 3564.85 680.222 3587.67C755.121 3619.44 798.118 3678.89 806.889 3759C809.987 3787.3 808.972 3815.81 811.778 3844.11C815.625 3882.91 829.818 3916.45 842 3953" stroke="#FFC2D0" stroke-width="2" stroke-linecap="round" stroke-linejoin="round"/>
<path d="M343.201 596C322.472 564.273 304.217 531.352 287.423 497.333C267.602 457.184 235.377 400.281 243.201 352.444C252.175 297.574 310.049 268.748 356.09 252.667C407.255 234.795 464.019 226.709 516.978 241.778C532.394 246.164 564.446 259.045 572.978 275.333C579.957 288.656 556.513 296.371 548.978 298.667C490.377 316.523 409.867 311.196 358.312 276.444C309.252 243.376 281.141 183.392 292.09 125.111C302.628 69.0116 331.372 18.9641 332.978 -39.1111C334.294 -86.6686 325.216 -135.236 315.201 -181.556C310.862 -201.62 304.327 -219.747 295.201 -238" stroke="#FFC2D0" stroke-width="2" stroke-linecap="round" stroke-linejoin="round"/>
</svg>
